<svg width="28" height="28" viewBox="0 0 28 28" fill="none" xmlns="http://www.w3.org/2000/svg">
<path d="M6.67969 24.5977H20.8945C23.3555 24.5977 24.5742 23.3789 24.5742 20.9648V6.65625C24.5742 4.24219 23.3555 3.02344 20.8945 3.02344H6.67969C4.23047 3.02344 3 4.23047 3 6.65625V20.9648C3 23.3906 4.23047 24.5977 6.67969 24.5977ZM6.70312 22.7109C5.53125 22.7109 4.88672 22.0898 4.88672 20.8711V6.75C4.88672 5.53125 5.53125 4.91016 6.70312 4.91016H20.8711C22.0312 4.91016 22.6875 5.53125 22.6875 6.75V20.8711C22.6875 22.0898 22.0312 22.7109 20.8711 22.7109H6.70312Z" fill="black" fill-opacity="0.85"/>
<path d="M6.96094 13.8047C6.96094 14.2734 7.28906 14.6016 7.73438 14.6016H13.1133L15.2695 14.4609L12.8906 16.582L12.1406 17.2734C11.9766 17.4141 11.9063 17.6016 11.9063 17.8359C11.9063 18.2812 12.2344 18.5977 12.6797 18.5977C12.8672 18.5977 13.1133 18.4922 13.2773 18.3398L17.3086 14.3906C17.4844 14.2266 17.5781 14.0273 17.5781 13.8047C17.5781 13.5938 17.4727 13.3828 17.3086 13.2188L13.2656 9.23438C13.0898 9.05859 12.8906 9 12.6797 9C12.2578 9 11.9063 9.30469 11.9063 9.75C11.9063 9.96094 11.9766 10.1602 12.1406 10.3242L12.8789 11.0391L15.2578 13.1484L13.1133 13.0312H7.73438C7.28906 13.0312 6.96094 13.3594 6.96094 13.8047ZM19.2422 18.9727C19.7109 18.9727 20.0391 18.6562 20.0391 18.1992V9.39844C20.0391 8.94141 19.7109 8.61328 19.2422 8.61328C18.7969 8.61328 18.4688 8.94141 18.4688 9.39844V18.1992C18.4688 18.6562 18.7969 18.9727 19.2422 18.9727Z" fill="black" fill-opacity="0.85"/>
</svg>
