<svg width="28" height="23" viewBox="0 0 28 23" fill="none" xmlns="http://www.w3.org/2000/svg">
<path d="M3.82926 22.634H24.5486C26.7315 22.634 28 21.3657 28 18.8536V6.01217C28 3.5 26.7195 2.24389 24.1827 2.24389H12.317C11.4878 2.24389 10.9878 2.03659 10.378 1.52439L9.63413 0.902447C8.82925 0.231699 8.2073 0 7 0H3.36586C1.23171 0 0 1.21948 0 3.68289V18.8536C0 21.3779 1.29269 22.634 3.82926 22.634ZM1.96344 3.78045C1.96344 2.57315 2.60978 1.96344 3.76828 1.96344H6.49997C7.30486 1.96344 7.79266 2.15851 8.4146 2.69511L9.15851 3.30483C9.95116 3.9634 10.5975 4.20727 11.8048 4.20727H24.1463C25.3536 4.20727 26.0364 4.85362 26.0364 6.1219V6.85363H1.96344V3.78045ZM3.86584 20.6706C2.64636 20.6706 1.96344 20.0243 1.96344 18.756V8.69511H26.0364V18.7682C26.0364 20.0243 25.3536 20.6706 24.1463 20.6706H3.86584Z" fill="black"/>
</svg>
