<svg width="166" height="25" viewBox="0 0 166 25" fill="none" xmlns="http://www.w3.org/2000/svg">
<path d="M47.9167 19.7238L55.8992 24.5417L53.7808 15.4613L60.8333 9.35167L51.5462 8.56377L47.9167 0L44.2871 8.56377L35 9.35167L42.0525 15.4613L39.9342 24.5417L47.9167 19.7238Z" fill="#FFF500"/>
<path d="M82.9167 19.7238L90.8992 24.5417L88.7808 15.4613L95.8333 9.35167L86.5462 8.56377L82.9167 0L79.2871 8.56377L70 9.35167L77.0525 15.4613L74.9342 24.5417L82.9167 19.7238Z" fill="#FFF500"/>
<path d="M117.917 19.7238L125.899 24.5417L123.781 15.4613L130.833 9.35167L121.546 8.56377L117.917 0L114.287 8.56377L105 9.35167L112.052 15.4613L109.934 24.5417L117.917 19.7238Z" fill="#FFF500"/>
<path d="M152.917 19.7238L160.899 24.5417L158.781 15.4613L165.833 9.35167L156.546 8.56377L152.917 0L149.287 8.56377L140 9.35167L147.052 15.4613L144.934 24.5417L152.917 19.7238Z" fill="#FFF500"/>
<path d="M12.9167 19.7238L20.8992 24.5417L18.7808 15.4613L25.8333 9.35167L16.5462 8.56377L12.9167 0L9.2871 8.56377L0 9.35167L7.0525 15.4613L4.93416 24.5417L12.9167 19.7238Z" fill="#FFF500"/>
</svg>
